  0
SECTION
  2
HEADER
  9
$ACADVER
  1
AC1009
  9
$DWGCODEPAGE
  3
ansi_932
  9
$INSBASE
 10
0.0
 20
0.0
 30
0.0
  9
$EXTMIN
 10
1.000000000000000E+20
 20
1.000000000000000E+20
 30
1.000000000000000E+20
  9
$EXTMAX
 10
-1.000000000000000E+20
 20
-1.000000000000000E+20
 30
-1.000000000000000E+20
  9
$LIMMIN
 10
0.0
 20
0.0
  9
$LIMMAX
 10
12.0
 20
9.0
  9
$ORTHOMODE
 70
     0
  9
$REGENMODE
 70
     1
  9
$FILLMODE
 70
     1
  9
$QTEXTMODE
 70
     0
  9
$MIRRTEXT
 70
     1
  9
$DRAGMODE
 70
     2
  9
$LTSCALE
 40
1.0
  9
$OSMODE
 70
    37
  9
$ATTMODE
 70
     1
  9
$TEXTSIZE
 40
0.2
  9
$TRACEWID
 40
0.05
  9
$TEXTSTYLE
  7
STANDARD
  9
$CLAYER
  8
0
  9
$CELTYPE
  6
BYBLOCK
  9
$CECOLOR
 62
   256
  9
$DIMSCALE
 40
1.0
  9
$DIMASZ
 40
0.18
  9
$DIMEXO
 40
0.0625
  9
$DIMDLI
 40
0.38
  9
$DIMRND
 40
0.0
  9
$DIMDLE
 40
0.0
  9
$DIMEXE
 40
0.18
  9
$DIMTP
 40
0.0
  9
$DIMTM
 40
0.0
  9
$DIMTXT
 40
0.18
  9
$DIMCEN
 40
0.09
  9
$DIMTSZ
 40
0.0
  9
$DIMTOL
 70
     0
  9
$DIMLIM
 70
     0
  9
$DIMTIH
 70
     1
  9
$DIMTOH
 70
     1
  9
$DIMSE1
 70
     0
  9
$DIMSE2
 70
     0
  9
$DIMTAD
 70
     0
  9
$DIMZIN
 70
     0
  9
$DIMBLK
  1

  9
$DIMASO
 70
     1
  9
$DIMSHO
 70
     1
  9
$DIMPOST
  1

  9
$DIMAPOST
  1

  9
$DIMALT
 70
     0
  9
$DIMALTD
 70
     2
  9
$DIMALTF
 40
25.4
  9
$DIMLFAC
 40
1.0
  9
$DIMTOFL
 70
     0
  9
$DIMTVP
 40
0.0
  9
$DIMTIX
 70
     0
  9
$DIMSOXD
 70
     0
  9
$DIMSAH
 70
     0
  9
$DIMBLK1
  1

  9
$DIMBLK2
  1

  9
$DIMSTYLE
  2
STANDARD
  9
$DIMCLRD
 70
     0
  9
$DIMCLRE
 70
     0
  9
$DIMCLRT
 70
     0
  9
$DIMTFAC
 40
1.0
  9
$DIMGAP
 40
0.09
  9
$LUNITS
 70
     2
  9
$LUPREC
 70
     4
  9
$SKETCHINC
 40
0.1
  9
$FILLETRAD
 40
0.5
  9
$AUNITS
 70
     0
  9
$AUPREC
 70
     0
  9
$MENU
  1
.
  9
$ELEVATION
 40
0.0
  9
$PELEVATION
 40
0.0
  9
$THICKNESS
 40
0.0
  9
$LIMCHECK
 70
     0
  9
$CHAMFERA
 40
0.5
  9
$CHAMFERB
 40
0.5
  9
$SKPOLY
 70
     0
  9
$TDCREATE
 40
2447893.375
  9
$TDUPDATE
 40
2447893.375
  9
$TDINDWG
 40
0.0
  9
$TDUSRTIMER
 40
0.0
  9
$USRTIMER
 70
     1
  9
$ANGBASE
 50
0.0
  9
$ANGDIR
 70
     0
  9
$PDMODE
 70
     0
  9
$PDSIZE
 40
0.0
  9
$PLINEWID
 40
0.0
  9
$COORDS
 70
     1
  9
$SPLFRAME
 70
     0
  9
$SPLINETYPE
 70
     6
  9
$SPLINESEGS
 70
     8
  9
$ATTDIA
 70
     0
  9
$ATTREQ
 70
     1
  9
$HANDLING
 70
     1
  9
$HANDSEED
  5
100CC
  9
$SURFTAB1
 70
     6
  9
$SURFTAB2
 70
     6
  9
$SURFTYPE
 70
     6
  9
$SURFU
 70
     6
  9
$SURFV
 70
     6
  9
$UCSNAME
  2

  9
$UCSORG
 10
0.0
 20
0.0
 30
0.0
  9
$UCSXDIR
 10
1.0
 20
0.0
 30
0.0
  9
$UCSYDIR
 10
0.0
 20
1.0
 30
0.0
  9
$PUCSNAME
  2

  9
$PUCSORG
 10
0.0
 20
0.0
 30
0.0
  9
$PUCSXDIR
 10
1.0
 20
0.0
 30
0.0
  9
$PUCSYDIR
 10
0.0
 20
1.0
 30
0.0
  9
$USERI1
 70
     0
  9
$USERI2
 70
     0
  9
$USERI3
 70
     0
  9
$USERI4
 70
     0
  9
$USERI5
 70
     0
  9
$USERR1
 40
0.0
  9
$USERR2
 40
0.0
  9
$USERR3
 40
0.0
  9
$USERR4
 40
0.0
  9
$USERR5
 40
0.0
  9
$WORLDVIEW
 70
     1
  9
$SHADEDGE
 70
     3
  9
$SHADEDIF
 70
    70
  9
$TILEMODE
 70
     1
  9
$MAXACTVP
 70
    64
  9
$PLIMCHECK
 70
     0
  9
$PEXTMIN
 10
1.000000000000000E+20
 20
1.000000000000000E+20
 30
1.000000000000000E+20
  9
$PEXTMAX
 10
-1.000000000000000E+20
 20
-1.000000000000000E+20
 30
-1.000000000000000E+20
  9
$PLIMMIN
 10
0.0
 20
0.0
  9
$PLIMMAX
 10
12.0
 20
9.0
  9
$UNITMODE
 70
     0
  9
$VISRETAIN
 70
     1
  9
$PLINEGEN
 70
     0
  9
$PSLTSCALE
 70
     1
  0
ENDSEC
  0
SECTION
  2
TABLES
  0
TABLE
  2
VPORT
 70
     1
  0
VPORT
  2
*ACTIVE
 70
     0
 10
0.0
 20
0.0
 11
1.0
 21
1.0
 12
10.42990654205607
 22
4.5
 13
0.0
 23
0.0
 14
0.5
 24
0.5
 15
0.5
 25
0.5
 16
0.0
 26
0.0
 36
1.0
 17
0.0
 27
0.0
 37
0.0
 40
9.0
 41
1.972972972850329
 42
50.0
 43
0.0
 44
0.0
 50
0.0
 51
0.0
 71
     0
 72
   100
 73
     1
 74
     3
 75
     0
 76
     0
 77
     0
 78
     0
  0
ENDTAB
  0
TABLE
  2
LTYPE
 70
     1
  0
LTYPE
  2
CONTINUOUS
 70
     0
  3
Solid line
 72
    65
 73
     0
 40
0.0
  0
ENDTAB
  0
TABLE
  2
LAYER
 70
     1
  0
LAYER
  2
0
 70
     0
 62
     7
  6
CONTINUOUS
  0
ENDTAB
  0
TABLE
  2
STYLE
 70
     1
  0
STYLE
  2
STANDARD
 70
     0
 40
0.2
 41
1.0
 50
0.0
 71
     0
 42
0.2
  3

  4

  0
ENDTAB
  0
TABLE
  2
VIEW
 70
     0
  0
ENDTAB
  0
TABLE
  2
UCS
 70
     0
  0
ENDTAB
  0
TABLE
  2
APPID
 70
     1
  0
APPID
  2
ACAD
 70
     0
  0
ENDTAB
  0
TABLE
  2
DIMSTYLE
 70
     1
  0
DIMSTYLE
  2
STANDARD
 70
     0
  3

  4

  5

  6

  7

 40
1.0
 41
0.18
 42
0.0625
 43
0.38
 44
0.18
 45
0.0
 46
0.0
 47
0.0
 48
0.0
140
0.18
141
0.09
142
0.0
143
25.4
144
1.0
145
0.0
146
1.0
147
0.09
 71
     0
 72
     0
 73
     1
 74
     1
 75
     0
 76
     0
 77
     0
 78
     0
170
     0
171
     2
172
     0
173
     0
174
     0
175
     0
176
     0
177
     0
178
     0
  0
ENDTAB
  0
ENDSEC
  0
SECTION
  2
BLOCKS
  0
BLOCK
  8
0
  2
$MODEL_SPACE
 70
     0
 10
0.0
 20
0.0
 30
0.0
  3
$MODEL_SPACE
  1

  0
ENDBLK
  5
21
  8
0
  0
BLOCK
 67
     1
  8
0
  2
$PAPER_SPACE
 70
     0
 10
0.0
 20
0.0
 30
0.0
  3
$PAPER_SPACE
  1

  0
ENDBLK
  5
1D
 67
     1
  8
0
  0
ENDSEC
  0
SECTION
  2
ENTITIES
  0
ARC
  5
100
  8
0
 10
39.72213995456687
 20
-201.6052322387688
 30
0.0
 40
3.000000000000043
 50
270.0000000000002
 51
360.0
  0
LINE
  5
101
  8
0
 10
42.72213995456692
 20
-201.6052322387689
 30
0.0
 11
42.72213995456689
 21
-199.6052322387689
 31
0.0
  0
ARC
  5
102
  8
0
 10
42.72213995456691
 20
-192.6052322387689
 30
0.0
 40
6.999999999999957
 50
-90.0000000000002
 51
89.9999999999999
  0
LINE
  5
103
  8
0
 10
42.72213995456693
 20
-185.605232238769
 30
0.0
 11
42.72213995456692
 21
-143.6052322387691
 31
0.0
  0
LINE
  5
104
  8
0
 10
42.72213995456692
 20
-143.6052322387691
 30
0.0
 11
41.72213995456714
 21
-143.6052322387691
 31
0.0
  0
LINE
  5
105
  8
0
 10
41.72213995456714
 20
-143.6052322387691
 30
0.0
 11
41.72213995456715
 21
-139.6052322387693
 31
0.0
  0
LINE
  5
106
  8
0
 10
41.72213995456715
 20
-139.6052322387693
 30
0.0
 11
40.72213995456716
 21
-138.6052322387693
 31
0.0
  0
LINE
  5
107
  8
0
 10
34.72213995456713
 20
-138.6052322387693
 30
0.0
 11
33.72213995456715
 21
-139.6052322387693
 31
0.0
  0
LINE
  5
108
  8
0
 10
33.72213995456715
 20
-139.6052322387693
 30
0.0
 11
33.72213995456718
 21
-143.6052322387693
 31
0.0
  0
LINE
  5
109
  8
0
 10
33.72213995456718
 20
-143.6052322387693
 30
0.0
 11
32.72213995456693
 21
-143.6052322387691
 31
0.0
  0
LINE
  5
110
  8
0
 10
32.72213995456693
 20
-143.6052322387691
 30
0.0
 11
32.72213995456689
 21
-159.605232238769
 31
0.0
  0
ARC
  5
111
  8
0
 10
29.7221399545669
 20
-159.605232238769
 30
0.0
 40
3.000000000000007
 50
-90.0000000000001
 51
0.0
  0
POLYLINE
  5
112
  8
0
 66
     1
 10
0.0
 20
0.0
 30
0.0
 70
     1
  0
VERTEX
  5
1000B
  8
0
 10
-22.27786004543303
 20
-159.605232238769
 30
0.0
 42
0.4142135623730948
  0
VERTEX
  5
1000C
  8
0
 10
-19.27786004543303
 20
-162.605232238769
 30
0.0
  0
VERTEX
  5
1000D
  8
0
 10
8.00000011920929
 20
-162.605232238769
 30
0.0
  0
VERTEX
  5
1000E
  8
0
 10
8.000000119209332
 20
-156.8262714595462
 30
0.0
 42
-0.0281280554442164
  0
VERTEX
  5
1000F
  8
0
 10
5.141547180795727
 20
-156.6077498827313
 30
0.0
 42
-0.3938083024041045
  0
VERTEX
  5
10010
  8
0
 10
2.715987299408555
 20
-153.6570689776885
 30
0.0
 42
-0.2034209682259118
  0
VERTEX
  5
10011
  8
0
 10
-12.48856256558742
 20
-144.8314008471857
 30
0.0
  0
VERTEX
  5
10012
  8
0
 10
-12.4885625655874
 20
-136.3314008141493
 30
0.0
  0
VERTEX
  5
10013
  8
0
 10
-26.50000039488077
 20
-136.3314008141493
 30
0.0
  0
VERTEX
  5
10014
  8
0
 10
-26.50000039488077
 20
-138.6052322387693
 30
0.0
  0
VERTEX
  5
10015
  8
0
 10
-24.27786004543324
 20
-138.6052322387693
 30
0.0
  0
VERTEX
  5
10016
  8
0
 10
-23.27786004543324
 20
-139.6052322387693
 30
0.0
  0
VERTEX
  5
10017
  8
0
 10
-23.27786004543325
 20
-143.6052322387693
 30
0.0
  0
VERTEX
  5
10018
  8
0
 10
-22.27786004543302
 20
-143.6052322387691
 30
0.0
  0
SEQEND
  5
1000A
  8
0
  0
LINE
  5
113
  8
0
 10
-30.27786004543323
 20
-138.6052322387693
 30
0.0
 11
-31.27786004543323
 21
-139.6052322387693
 31
0.0
  0
LINE
  5
114
  8
0
 10
-31.27786004543323
 20
-139.6052322387693
 30
0.0
 11
-31.27786004543323
 21
-143.6052322387693
 31
0.0
  0
LINE
  5
115
  8
0
 10
-31.27786004543323
 20
-143.6052322387693
 30
0.0
 11
-32.27786004543302
 21
-143.6052322387691
 31
0.0
  0
ARC
  5
116
  8
0
 10
-32.27786004543302
 20
-192.6052322387689
 30
0.0
 40
6.999999999999957
 50
90.00000000000006
 51
269.9999999999999
  0
LINE
  5
117
  8
0
 10
-32.27786004543303
 20
-199.6052322387689
 30
0.0
 11
-32.27786004543303
 21
-201.6052322387689
 31
0.0
  0
ARC
  5
118
  8
0
 10
-29.27786004543303
 20
-201.6052322387688
 30
0.0
 40
2.999999999999998
 50
180.0
 51
269.9999999999999
  0
LINE
  5
119
  8
0
 10
-29.27786004543303
 20
-204.6052322387689
 30
0.0
 11
39.72213995456689
 21
-204.6052322387689
 31
0.0
  0
CIRCLE
  5
120
  8
0
 10
37.72213995456691
 20
-141.1052322387691
 30
0.0
 40
0.9499999999999964
  0
POLYLINE
  5
121
  8
0
 66
     1
 10
0.0
 20
0.0
 30
0.0
 70
     1
  0
VERTEX
  5
1001A
  8
0
 10
1.222139947959715
 20
-166.755232238769
 30
0.0
  0
VERTEX
  5
1001B
  8
0
 10
1.222139947959716
 20
-165.055232238769
 30
0.0
  0
VERTEX
  5
1001C
  8
0
 10
9.222139947959704
 20
-165.055232238769
 30
0.0
  0
VERTEX
  5
1001D
  8
0
 10
9.222139947959704
 20
-166.755232238769
 30
0.0
  0
SEQEND
  5
10019
  8
0
  0
CIRCLE
  5
122
  8
0
 10
-27.277860045433
 20
-141.1052322387691
 30
0.0
 40
0.9499999999999964
  0
LINE
  5
123
  8
0
 10
-44.19673959937478
 20
-178.8209519060547
 30
-0.0000000000006573
 11
-43.19673959937472
 21
-179.8209519060547
 31
-0.0000000000006566
  0
LINE
  5
124
  8
0
 10
-43.19673959937472
 20
-179.8209519060547
 30
-0.0000000000006566
 11
-37.1967395993742
 21
-179.8209519060549
 31
-0.0000000000006342
  0
LINE
  5
125
  8
0
 10
-37.1967395993742
 20
-179.8209519060549
 30
-0.0000000000006342
 11
-36.19673959937409
 21
-178.8209519060549
 31
-0.000000000000631
  0
LINE
  5
126
  8
0
 10
-36.19673959937409
 20
-178.8209519060549
 30
-0.000000000000631
 11
-36.196739599374
 21
-174.8209542902407
 31
-0.0000000000006172
  0
LINE
  5
127
  8
0
 10
-36.196739599374
 20
-174.8209542902407
 30
-0.0000000000006172
 11
-35.19673959937391
 21
-174.8209530981479
 31
-0.000000000000616
  0
LINE
  5
128
  8
0
 10
-35.19673959937303
 20
-139.820953098148
 30
-0.0000000000005193
 11
-45.19673959937389
 21
-139.8209530981476
 31
-0.0000000000005543
  0
LINE
  5
129
  8
0
 10
-45.19673959937389
 20
-139.8209530981476
 30
-0.0000000000005543
 11
-45.19673959937477
 21
-174.8209530981476
 31
-0.0000000000006487
  0
LINE
  5
130
  8
0
 10
-45.19673959937477
 20
-174.8209530981476
 30
-0.0000000000006487
 11
-44.19673959937469
 21
-174.8209542902405
 31
-0.0000000000006471
  0
LINE
  5
131
  8
0
 10
-44.19673959937469
 20
-174.8209542902405
 30
-0.0000000000006471
 11
-44.19673959937478
 21
-178.8209519060547
 31
-0.0000000000006573
  0
CIRCLE
  5
132
  8
0
 10
-40.1967395993744
 20
-177.3209530981478
 30
-0.0000000000006395
 40
0.9499999999999976
  0
CIRCLE
  5
133
  8
0
 10
-40.19673959937406
 20
-163.8209530981478
 30
-0.0000000000006017
 40
1.500000000000001
  0
CIRCLE
  5
134
  8
0
 10
-40.19673959937357
 20
-143.8209530981478
 30
-0.0000000000005462
 40
1.499999999999996
  0
CIRCLE
  5
135
  8
0
 10
-37.6967395993736
 20
-153.8209530981478
 30
-0.0000000000005662
 40
1.000000014901159
  0
CIRCLE
  5
136
  8
0
 10
-5.738560007508244
 20
-147.0814008141492
 30
0.0000000000001577
 40
0.999999999999988
  0
POLYLINE
  5
137
  8
0
 66
     1
 10
0.0
 20
0.0
 30
0.0
 70
     1
  0
VERTEX
  5
1001F
  8
0
 10
1.011437414590386
 20
-118.8314008141625
 30
0.0
  0
VERTEX
  5
10020
  8
0
 10
16.01143741459018
 20
-118.8314008141578
 30
0.0
 42
-0.4142135623731846
  0
VERTEX
  5
10021
  8
0
 10
20.01143741459137
 20
-122.8314008141577
 30
0.0
  0
VERTEX
  5
10022
  8
0
 10
20.01143741459135
 20
-130.5000019446015
 30
0.0
  0
VERTEX
  5
10023
  8
0
 10
17.88592181426321
 20
-130.5000019446015
 30
0.0
  0
VERTEX
  5
10024
  8
0
 10
17.88592181426322
 20
-124.9682004980298
 30
0.0
 42
0.7453559924999327
  0
VERTEX
  5
10025
  8
0
 10
11.45735038569177
 20
-123.05157080303
 30
0.0
  0
VERTEX
  5
10026
  8
0
 10
8.885921814263201
 20
-124.9682004980298
 30
0.0
  0
VERTEX
  5
10027
  8
0
 10
-1.114078185736821
 20
-124.9682004980298
 30
0.0
  0
VERTEX
  5
10028
  8
0
 10
-1.114078185736821
 20
-125.1999972015619
 30
0.0
  0
VERTEX
  5
10029
  8
0
 10
-2.988562585408361
 20
-125.1999972015619
 30
0.0
  0
VERTEX
  5
1002A
  8
0
 10
-2.988562585408356
 20
-122.8314008141625
 30
0.0
 42
-0.414213562373004
  0
SEQEND
  5
1001E
  8
0
  0
POLYLINE
  5
138
  8
0
 66
     1
 10
0.0
 20
0.0
 30
0.0
 70
     1
  0
VERTEX
  5
1002C
  8
0
 10
16.01143741459011
 20
-143.8314008273551
 30
0.0
 42
0.4142135623731906
  0
VERTEX
  5
1002D
  8
0
 10
20.01143741459134
 20
-139.8314008273551
 30
0.0
  0
VERTEX
  5
1002E
  8
0
 10
20.01143741459135
 20
-132.5000019744039
 30
0.0
  0
VERTEX
  5
1002F
  8
0
 10
17.88592181426321
 20
-132.5000019744039
 30
0.0
  0
VERTEX
  5
10030
  8
0
 10
17.8859218142632
 20
-137.9682004980298
 30
0.0
 42
-0.7453559924999308
  0
VERTEX
  5
10031
  8
0
 10
11.45735038569176
 20
-139.8848301930296
 30
0.0
  0
VERTEX
  5
10032
  8
0
 10
8.885921814263181
 20
-137.9682004980298
 30
0.0
  0
VERTEX
  5
10033
  8
0
 10
-1.114078185736839
 20
-137.9682004980298
 30
0.0
  0
VERTEX
  5
10034
  8
0
 10
-1.114078185736838
 20
-137.6999969221652
 30
0.0
  0
VERTEX
  5
10035
  8
0
 10
-2.988562585408371
 20
-137.6999969221652
 30
0.0
  0
VERTEX
  5
10036
  8
0
 10
-2.988562585408372
 20
-139.8314008273505
 30
0.0
 42
0.4142135623729987
  0
VERTEX
  5
10037
  8
0
 10
1.011437414590277
 20
-143.8314008273504
 30
0.0
  0
SEQEND
  5
1002B
  8
0
  0
CIRCLE
  5
139
  8
0
 10
12.7614399924915
 20
-147.0814008141491
 30
0.0000000000000244
 40
0.9999999999999925
  0
CIRCLE
  5
140
  8
0
 10
12.76143999249156
 20
-115.5814008141492
 30
0.0000000000000022
 40
0.999999999999988
  0
POLYLINE
  5
141
  8
0
 66
     1
 10
0.0
 20
0.0
 30
0.0
 70
     1
  0
VERTEX
  5
10039
  8
0
 10
-32.48856258540905
 20
-132.8314008141493
 30
0.0
 42
0.9999999999999999
  0
VERTEX
  5
1003A
  8
0
 10
-32.4885625854091
 20
-129.8314008141493
 30
0.0
  0
VERTEX
  5
1003B
  8
0
 10
-42.48856258540891
 20
-129.8314008141494
 30
0.0
 42
0.9999999999999999
  0
VERTEX
  5
1003C
  8
0
 10
-42.48856258540891
 20
-132.8314008141494
 30
0.0
  0
SEQEND
  5
10038
  8
0
  0
CIRCLE
  5
142
  8
0
 10
-5.738560007508191
 20
-115.5814008141493
 30
0.0000000000001354
 40
0.9999999999999836
  0
CIRCLE
  5
143
  8
0
 10
-27.48856258540896
 20
-131.3314008207566
 30
0.000000000000302
 40
1.49999999999998
  0
POLYLINE
  5
144
  8
0
 66
     1
 10
0.0
 20
0.0
 30
0.0
 70
     1
  0
VERTEX
  5
1003E
  8
0
 10
-12.48856258540928
 20
-132.8314008207565
 30
0.0
 42
0.9999999999999999
  0
VERTEX
  5
1003F
  8
0
 10
-12.48856258540934
 20
-129.8314008207565
 30
0.0
  0
VERTEX
  5
10040
  8
0
 10
-22.48856258540915
 20
-129.8314008207565
 30
0.0
 42
0.9999999999999999
  0
VERTEX
  5
10041
  8
0
 10
-22.48856258540915
 20
-132.8314008207565
 30
0.0
  0
SEQEND
  5
1003D
  8
0
  0
ARC
  5
145
  8
0
 10
21.42133999046431
 20
-147.2413033916697
 30
-0.0000000000000377
 40
5.011209965627383
 50
-50.94518637242298
 51
51.39373227583061
  0
ARC
  5
146
  8
0
 10
5.511437414588158
 20
-131.3314008207564
 30
0.0000000000000644
 40
22.49999999999788
 50
-32.21253535118444
 51
32.21253535084806
  0
ARC
  5
147
  8
0
 10
8.511440022293932
 20
-131.3314008141491
 30
0.0000000000000444
 40
25.49999999999984
 50
50.94281125154806
 51
97.5946196478852
  0
ARC
  5
148
  8
0
 10
5.511437414590503
 20
-108.8314008273637
 30
0.0000000000000466
 40
2.800880742851103
 50
97.59437449679624
 51
183.5684986067053
  0
ARC
  5
149
  8
0
 10
5.511437414588158
 20
-131.3314008207564
 30
0.0000000000000644
 40
22.49999999999808
 50
97.1369974831368
 51
143.1301022700255
  0
LINE
  5
150
  8
0
 10
-12.48856256558736
 20
-117.8314007943273
 30
0.0000000000001827
 11
-12.48856256558739
 21
-126.3314008141493
 31
0.0000000000001887
  0
ARC
  5
151
  8
0
 10
-42.48856258540891
 20
-131.3314008141494
 30
0.0000000000004086
 40
5.0
 50
89.99999977285754
 51
269.9999997728576
  0
POLYLINE
  5
152
  8
0
 66
     1
 10
0.0
 20
0.0
 30
0.0
 70
     1
  0
VERTEX
  5
10043
  8
0
 10
-26.16803637335735
 20
-114.4287437933876
 30
0.0
  0
VERTEX
  5
10044
  8
0
 10
-34.26803637335727
 20
-114.4287437933877
 30
0.0
  0
VERTEX
  5
10045
  8
0
 10
-34.2680363733573
 20
-112.7287437933877
 30
0.0
  0
VERTEX
  5
10046
  8
0
 10
-26.16803637335737
 20
-112.7287437933876
 30
0.0
  0
SEQEND
  5
10042
  8
0
  0
LINE
  5
153
  8
0
 10
-18.21803637335734
 20
-118.5787437933875
 30
0.0000000000004498
 11
-18.21803637335742
 21
-113.5787437933875
 31
0.0000000000004247
  0
POLYLINE
  5
154
  8
0
 66
     1
 10
0.0
 20
0.0
 30
0.0000000000003553
  0
VERTEX
  5
10047
  8
0
 10
-18.21803637335743
 20
-113.5787437933875
 30
0.0
  0
VERTEX
  5
10048
  8
0
 10
-18.44861300851869
 20
-112.2131115392746
 30
0.0
  0
VERTEX
  5
10049
  8
0
 10
-19.13148198322203
 20
-110.8999597668319
 30
0.0
  0
VERTEX
  5
1004A
  8
0
 10
-20.24040102572695
 20
-109.6897521622503
 30
0.0
  0
VERTEX
  5
1004B
  8
0
 10
-21.73275499911892
 20
-108.6289963250817
 30
0.0
  0
VERTEX
  5
1004C
  8
0
 10
-23.55119357712227
 20
-107.7584565072697
 30
0.0
  0
VERTEX
  5
1004D
  8
0
 10
-25.62583518497641
 20
-107.1115870658086
 30
0.0
  0
VERTEX
  5
1004E
  8
0
 10
-27.87695250916393
 20
-106.713246830565
 30
0.0
  0
VERTEX
  5
1004F
  8
0
 10
-30.21803637335745
 20
-106.5787437933877
 30
0.0
  0
VERTEX
  5
10050
  8
0
 10
-32.55912023755096
 20
-106.7132468305651
 30
0.0
  0
VERTEX
  5
10051
  8
0
 10
-34.81023756173848
 20
-107.1115870658087
 30
0.0
  0
VERTEX
  5
10052
  8
0
 10
-36.88487916959259
 20
-107.75845650727
 30
0.0
  0
VERTEX
  5
10053
  8
0
 10
-38.7033177475959
 20
-108.628996325082
 30
0.0
  0
VERTEX
  5
10054
  8
0
 10
-40.19567172098785
 20
-109.6897521622506
 30
0.0
  0
VERTEX
  5
10055
  8
0
 10
-41.30459076349272
 20
-110.8999597668322
 30
0.0
  0
VERTEX
  5
10056
  8
0
 10
-41.98745973819602
 20
-112.2131115392749
 30
0.0
  0
VERTEX
  5
10057
  8
0
 10
-42.21803637335723
 20
-113.5787437933878
 30
0.0
  0
SEQEND
  5
10058
  8
0
  0
LINE
  5
155
  8
0
 10
-42.21803637335724
 20
-113.5787437933878
 30
0.0000000000002775
 11
-42.21803637335715
 21
-118.5787437933878
 31
0.0000000000002992
  0
POLYLINE
  5
156
  8
0
 66
     1
 10
0.0
 20
0.0
 30
0.0000000000003775
  0
VERTEX
  5
10059
  8
0
 10
-33.71803637348017
 20
-121.4353151647083
 30
0.0
  0
VERTEX
  5
1005A
  8
0
 10
-32.9646275053481
 20
-121.9211967516726
 30
0.0
  0
VERTEX
  5
1005B
  8
0
 10
-32.10833118458036
 20
-122.2818698696999
 30
0.0
  0
VERTEX
  5
1005C
  8
0
 10
-31.1812243177536
 20
-122.5038236842449
 30
0.0
  0
VERTEX
  5
1005D
  8
0
 10
-30.21803637833687
 20
-122.5787437933876
 30
0.0
  0
VERTEX
  5
1005E
  8
0
 10
-29.2548484387336
 20
-122.5038236857797
 30
0.0
  0
VERTEX
  5
1005F
  8
0
 10
-28.32774157135421
 20
-122.281869872712
 30
0.0
  0
VERTEX
  5
10060
  8
0
 10
-27.47144524968847
 20
-121.9211967560492
 30
0.0
  0
VERTEX
  5
10061
  8
0
 10
-26.71803638034664
 20
-121.4353151702855
 30
0.0
  0
SEQEND
  5
10062
  8
0
  0
CIRCLE
  5
157
  8
0
 10
14.38592181426321
 20
-124.9682004980298
 30
-0.0000000000000178
 40
1.000000000000001
  0
CIRCLE
  5
158
  8
0
 10
14.38592181426321
 20
-131.4682004980298
 30
-0.0000000000000222
 40
1.000000000000002
  0
CIRCLE
  5
159
  8
0
 10
14.3859218142632
 20
-137.9682004980298
 30
-0.0000000000000222
 40
0.999999999999998
  0
POLYLINE
  5
160
  8
0
 66
     1
 10
0.0
 20
0.0
 30
0.0
 70
     1
  0
VERTEX
  5
10064
  8
0
 10
-1.114078185736825
 20
-127.4682004980298
 30
0.0
  0
VERTEX
  5
10065
  8
0
 10
8.885921814263197
 20
-127.4682004980298
 30
0.0
  0
VERTEX
  5
10066
  8
0
 10
10.8859218142632
 20
-129.4682004980298
 30
0.0
  0
VERTEX
  5
10067
  8
0
 10
10.88592181426319
 20
-133.4682004980298
 30
0.0
  0
VERTEX
  5
10068
  8
0
 10
8.885921814263186
 20
-135.4682004980298
 30
0.0
  0
VERTEX
  5
10069
  8
0
 10
-1.114078185736834
 20
-135.4682004980298
 30
0.0
  0
VERTEX
  5
1006A
  8
0
 10
-1.114078185736835
 20
-135.6999969668686
 30
0.0
  0
VERTEX
  5
1006B
  8
0
 10
-2.988562585408369
 20
-135.6999969668686
 30
0.0
  0
VERTEX
  5
1006C
  8
0
 10
-2.988562585408363
 20
-127.1999971568584
 30
0.0
  0
VERTEX
  5
1006D
  8
0
 10
-1.114078185736825
 20
-127.1999971568584
 30
0.0
  0
SEQEND
  5
10063
  8
0
  0
POLYLINE
  5
161
  8
0
 66
     1
 10
0.0
 20
0.0
 30
0.0
 70
     1
  0
VERTEX
  5
1006F
  8
0
 10
39.69159661427593
 20
-126.1855214255236
 30
0.0
  0
VERTEX
  5
10070
  8
0
 10
39.69159661427547
 20
-118.0855214255238
 30
0.0
  0
VERTEX
  5
10071
  8
0
 10
41.39159661427545
 20
-118.0855214255237
 30
0.0
  0
VERTEX
  5
10072
  8
0
 10
41.39159661427592
 20
-126.1855214255235
 30
0.0
  0
SEQEND
  5
1006E
  8
0
  0
POLYLINE
  5
162
  8
0
 66
     1
 10
0.0
 20
0.0
 30
0.0000000000003064
  0
VERTEX
  5
10073
  8
0
 10
32.68502551689919
 20
-125.6355210760528
 30
0.0
  0
VERTEX
  5
10074
  8
0
 10
32.19548613093315
 20
-126.3958976394044
 30
0.0
  0
VERTEX
  5
10075
  8
0
 10
31.83345012222868
 20
-127.2606674339106
 30
0.0
  0
VERTEX
  5
10076
  8
0
 10
31.61271285529332
 20
-128.1968784486015
 30
0.0
  0
VERTEX
  5
10077
  8
0
 10
31.54168551295016
 20
-129.1688564082861
 30
0.0
  0
VERTEX
  5
10078
  8
0
 10
31.62307458862547
 20
-130.1395641400735
 30
0.0
  0
VERTEX
  5
10079
  8
0
 10
31.85377875554822
 20
-131.072012873045
 30
0.0
  0
VERTEX
  5
1007A
  8
0
 10
32.2250070426559
 20
-131.9306716935715
 30
0.0
  0
VERTEX
  5
1007B
  8
0
 10
32.72261381411945
 20
-132.6828214490496
 30
0.0
  0
VERTEX
  5
1007C
  8
0
 10
33.3276377881086
 20
-133.2998015096204
 30
0.0
  0
VERTEX
  5
1007D
  8
0
 10
34.01702455551406
 20
-133.7581018800767
 30
0.0
  0
VERTEX
  5
1007E
  8
0
 10
34.76450506708562
 20
-134.0402590470875
 30
0.0
  0
VERTEX
  5
1007F
  8
0
 10
35.54159661427646
 20
-134.1355214255238
 30
0.0
  0
SEQEND
  5
10080
  8
0
  0
POLYLINE
  5
163
  8
0
 66
     1
 10
0.0
 20
0.0
 30
0.0000000000002709
  0
VERTEX
  5
10081
  8
0
 10
40.54159661427638
 20
-134.1355214255235
 30
0.0
  0
VERTEX
  5
10082
  8
0
 10
41.90722886838924
 20
-133.9049447903621
 30
0.0
  0
VERTEX
  5
10083
  8
0
 10
43.22038064083191
 20
-133.2220758156587
 30
0.0
  0
VERTEX
  5
10084
  8
0
 10
44.43058824541342
 20
-132.1131567731538
 30
0.0
  0
VERTEX
  5
10085
  8
0
 10
45.49134408258193
 20
-130.6208027997618
 30
0.0
  0
VERTEX
  5
10086
  8
0
 10
46.36188390039379
 20
-128.8023642217584
 30
0.0
  0
VERTEX
  5
10087
  8
0
 10
47.00875334185486
 20
-126.7277226139043
 30
0.0
  0
VERTEX
  5
10088
  8
0
 10
47.40709357709833
 20
-124.4766052897167
 30
0.0
  0
VERTEX
  5
10089
  8
0
 10
47.54159661427558
 20
-122.1355214255232
 30
0.0
  0
VERTEX
  5
1008A
  8
0
 10
47.40709357709806
 20
-119.7944375613297
 30
0.0
  0
VERTEX
  5
1008B
  8
0
 10
47.00875334185433
 20
-117.5433202371422
 30
0.0
  0
VERTEX
  5
1008C
  8
0
 10
46.36188390039304
 20
-115.4686786292882
 30
0.0
  0
VERTEX
  5
1008D
  8
0
 10
45.49134408258097
 20
-113.6502400512849
 30
0.0
  0
VERTEX
  5
1008E
  8
0
 10
44.43058824541228
 20
-112.157886077893
 30
0.0
  0
VERTEX
  5
1008F
  8
0
 10
43.22038064083065
 20
-111.0489670353882
 30
0.0
  0
VERTEX
  5
10090
  8
0
 10
41.9072288683879
 20
-110.366098060685
 30
0.0
  0
VERTEX
  5
10091
  8
0
 10
40.54159661427501
 20
-110.1355214255238
 30
0.0
  0
SEQEND
  5
10092
  8
0
  0
LINE
  5
164
  8
0
 10
40.54159661427499
 20
-110.1355214255238
 30
0.000000000000234
 11
35.54159661427509
 21
-110.1355214255241
 31
0.0000000000002482
  0
POLYLINE
  5
165
  8
0
 66
     1
 10
0.0
 20
0.0
 30
0.0000000000002842
  0
VERTEX
  5
10093
  8
0
 10
32.68502524295494
 20
-118.6355214254011
 30
0.0
  0
VERTEX
  5
10094
  8
0
 10
32.19914365599069
 20
-119.3889302935332
 30
0.0
  0
VERTEX
  5
10095
  8
0
 10
31.83847053796343
 20
-120.245226614301
 30
0.0
  0
VERTEX
  5
10096
  8
0
 10
31.61651672341847
 20
-121.1723334811278
 30
0.0
  0
VERTEX
  5
10097
  8
0
 10
31.54159661427583
 20
-122.1355214205445
 30
0.0
  0
VERTEX
  5
10098
  8
0
 10
31.61651672188373
 20
-123.0987093601477
 30
0.0
  0
VERTEX
  5
10099
  8
0
 10
31.83847053495144
 20
-124.0258162275271
 30
0.0
  0
VERTEX
  5
1009A
  8
0
 10
32.19914365161429
 20
-124.8821125491928
 30
0.0
  0
VERTEX
  5
1009B
  8
0
 10
32.68502523737807
 20
-125.6355214185346
 30
0.0
  0
SEQEND
  5
1009C
  8
0
  0
LINE
  5
166
  8
0
 10
-24.00000035762787
 20
-122.5295235505335
 30
0.0000000000004312
 11
-24.00000035762787
 21
-126.3314008141493
 31
0.0000000000002712
  0
LINE
  5
167
  8
0
 10
-22.00000032782555
 20
-126.3314008141493
 30
0.0000000000002568
 11
-22.00000032782555
 21
-122.4582396939837
 31
0.0000000000004439
  0
LINE
  5
168
  8
0
 10
-12.48856256558739
 20
-126.3314008141493
 30
0.0000000000001887
 11
-22.00000032782555
 21
-126.3314008141493
 31
0.0000000000002568
  0
POLYLINE
  5
169
  8
0
 66
     1
 10
0.0
 20
0.0
 30
0.0000000000004174
  0
VERTEX
  5
1009D
  8
0
 10
-26.7180367228285
 20
-121.4353148907644
 30
0.0
  0
VERTEX
  5
1009E
  8
0
 10
-25.91315473418262
 20
-121.9479062551176
 30
0.0
  0
VERTEX
  5
1009F
  8
0
 10
-24.99417418258435
 20
-122.3178632176485
 30
0.0
  0
VERTEX
  5
100A0
  8
0
 10
-24.00000035762788
 20
-122.5295235505335
 30
0.0
  0
SEQEND
  5
100A1
  8
0
  0
POLYLINE
  5
170
  8
0
 66
     1
 10
0.0
 20
0.0
 30
0.0000000000004174
  0
VERTEX
  5
100A2
  8
0
 10
-22.00000032782555
 20
-122.4582396939837
 30
0.0
  0
VERTEX
  5
100A3
  8
0
 10
-21.10949682205155
 20
-122.2056707315503
 30
0.0
  0
VERTEX
  5
100A4
  8
0
 10
-20.2942825211796
 20
-121.8235958059761
 30
0.0
  0
VERTEX
  5
100A5
  8
0
 10
-19.58346612108379
 20
-121.3256575910929
 30
0.0
  0
VERTEX
  5
100A6
  8
0
 10
-19.00242860243454
 20
-120.7296358682975
 30
0.0
  0
VERTEX
  5
100A7
  8
0
 10
-18.57191695703967
 20
-120.0568126674127
 30
0.0
  0
VERTEX
  5
100A8
  8
0
 10
-18.30730337910951
 20
-119.3312123534561
 30
0.0
  0
VERTEX
  5
100A9
  8
0
 10
-18.21803637335734
 20
-118.5787437933874
 30
0.0
  0
SEQEND
  5
100AA
  8
0
  0
LINE
  5
171
  8
0
 10
-39.00000058114529
 20
-126.3314008141494
 30
0.0
 11
-39.00000058114529
 21
-122.316088610204
 31
0.0000000000003349
  0
LINE
  5
172
  8
0
 10
-37.00000055134296
 20
-122.5749388140797
 30
0.0000000000003491
 11
-37.00000055134296
 21
-126.3314008141494
 31
0.0
  0
LINE
  5
173
  8
0
 10
-24.00000035762787
 20
-126.3314008141493
 30
0.0000000000002712
 11
-37.00000055134296
 21
-126.3314008141494
 31
0.0
  0
LINE
  5
174
  8
0
 10
-39.00000058114529
 20
-126.3314008141494
 30
0.0
 11
-42.488562565587
 21
-126.3314008141494
 31
0.0000000000004035
  0
POLYLINE
  5
175
  8
0
 66
     1
 10
0.0
 20
0.0
 30
0.0000000000003286
  0
VERTEX
  5
100AB
  8
0
 10
-42.21803637335714
 20
-118.5787437933877
 30
0.0
  0
VERTEX
  5
100AC
  8
0
 10
-42.11730824431803
 20
-119.3775970252291
 30
0.0
  0
VERTEX
  5
100AD
  8
0
 10
-41.81918231959258
 20
-120.1442634605023
 30
0.0
  0
VERTEX
  5
100AE
  8
0
 10
-41.33567046582704
 20
-120.8478531489585
 30
0.0
  0
VERTEX
  5
100AF
  8
0
 10
-40.68625398078065
 20
-121.4600175814261
 30
0.0
  0
VERTEX
  5
100B0
  8
0
 10
-39.89709866745574
 20
-121.9560918867262
 30
0.0
  0
VERTEX
  5
100B1
  8
0
 10
-39.00000058114532
 20
-122.316088610204
 30
0.0
  0
SEQEND
  5
100B2
  8
0
  0
POLYLINE
  5
176
  8
0
 66
     1
 10
0.0
 20
0.0
 30
0.0000000000003286
  0
VERTEX
  5
100B3
  8
0
 10
-37.00000055134298
 20
-122.5749388140797
 30
0.0
  0
VERTEX
  5
100B4
  8
0
 10
-36.09487757729067
 20
-122.4765186924864
 30
0.0
  0
VERTEX
  5
100B5
  8
0
 10
-35.22724037786173
 20
-122.2480091196845
 30
0.0
  0
VERTEX
  5
100B6
  8
0
 10
-34.42604661481029
 20
-121.8970366738351
 30
0.0
  0
VERTEX
  5
100B7
  8
0
 10
-33.71803637950773
 20
-121.4353151696278
 30
0.0
  0
SEQEND
  5
100B8
  8
0
  0
LINE
  5
177
  8
0
 10
-28.50000042468309
 20
-138.6052322387693
 30
0.0
 11
-28.50000042468309
 21
-136.3314008141493
 31
0.0
  0
LINE
  5
178
  8
0
 10
-28.50000042468309
 20
-138.6052322387693
 30
0.0
 11
-30.27786004543323
 21
-138.6052322387693
 31
0.0
  0
LINE
  5
179
  8
0
 10
-42.48856260523083
 20
-136.3314008141494
 30
0.0000000000004125
 11
-28.50000042468309
 21
-136.3314008141493
 31
0.0
  0
LINE
  5
180
  8
0
 10
-32.27786004543302
 20
-147.0000021904707
 30
0.0
 11
-35.19673959937322
 21
-147.0000021904707
 31
0.0
  0
POLYLINE
  5
181
  8
0
 66
     1
 10
0.0
 20
0.0
 30
0.0
 70
     1
  0
VERTEX
  5
100BA
  8
0
 10
-35.19673959937327
 20
-149.000002220273
 30
0.0
  0
VERTEX
  5
100BB
  8
0
 10
-32.27786004543302
 20
-149.000002220273
 30
0.0
  0
VERTEX
  5
100BC
  8
0
 10
-32.27786004543302
 20
-169.0000025182962
 30
0.0
  0
VERTEX
  5
100BD
  8
0
 10
-35.19673959937376
 20
-169.0000025182962
 30
0.0
  0
SEQEND
  5
100B9
  8
0
  0
LINE
  5
182
  8
0
 10
-32.27786004543302
 20
-143.6052322387691
 30
0.0
 11
-32.27786004543302
 21
-147.0000021904707
 31
0.0
  0
LINE
  5
183
  8
0
 10
-35.19673959937322
 20
-147.0000021904707
 30
0.0
 11
-35.19673959937303
 21
-139.820953098148
 31
-0.0000000000005193
  0
LINE
  5
184
  8
0
 10
-32.27786004543302
 20
-171.0000025480986
 30
0.0
 11
-35.19673959937381
 21
-171.0000025480986
 31
0.0
  0
LINE
  5
185
  8
0
 10
-32.27786004543302
 20
-171.0000025480986
 30
0.0
 11
-32.27786004543302
 21
-185.6052322387689
 31
0.0
  0
LINE
  5
186
  8
0
 10
-35.19673959937391
 20
-174.8209530981479
 30
-0.000000000000616
 11
-35.19673959937381
 21
-171.0000025480986
 31
0.0
  0
LINE
  5
187
  8
0
 10
10.10320102282404
 20
-162.605232238769
 30
0.0
 11
10.10320102282404
 21
-156.7816718719825
 31
0.0000000000000516
  0
LINE
  5
188
  8
0
 10
29.7221399545669
 20
-162.605232238769
 30
0.0
 11
10.10320102282404
 21
-162.605232238769
 31
0.0
  0
ARC
  5
189
  8
0
 10
8.511440022293932
 20
-131.3314008141491
 30
0.0000000000000444
 40
25.49999999999997
 50
273.5788438855066
 51
309.0567219915602
  0
LINE
  5
190
  8
0
 10
37.00000055134296
 20
-138.6052322387693
 30
0.0
 11
37.00000055134296
 21
-134.1355214255237
 31
0.0000000000003188
  0
LINE
  5
191
  8
0
 10
39.00000058114529
 20
-134.1355214255236
 30
0.0000000000003146
 11
39.00000058114529
 21
-138.6052322387693
 31
0.0
  0
LINE
  5
192
  8
0
 10
40.72213995456716
 20
-138.6052322387693
 30
0.0
 11
39.00000058114529
 21
-138.6052322387693
 31
0.0
  0
LINE
  5
193
  8
0
 10
37.00000055134296
 20
-138.6052322387693
 30
0.0
 11
34.72213995456713
 21
-138.6052322387693
 31
0.0
  0
LINE
  5
194
  8
0
 10
35.54159661427646
 20
-134.1355214255238
 30
0.0000000000003218
 11
37.00000055134296
 21
-134.1355214255237
 31
0.0000000000003188
  0
LINE
  5
195
  8
0
 10
39.00000058114529
 20
-134.1355214255236
 30
0.0000000000003146
 11
40.54159661427637
 21
-134.1355214255235
 31
0.0000000000003114
  0
LINE
  5
196
  8
0
 10
31.60183631247379
 20
-116.0000017285347
 30
0.0000000000002748
 11
26.3990462005958
 21
-116.0000017285347
 31
-0.0000000000000966
  0
LINE
  5
197
  8
0
 10
26.22670916918294
 20
-114.0000016987324
 30
-0.0000000000000962
 11
31.64611451727601
 21
-114.0000016987324
 31
0.0000000000002685
  0
POLYLINE
  5
198
  8
0
 66
     1
 10
0.0
 20
0.0
 30
0.000000000000262
  0
VERTEX
  5
100BE
  8
0
 10
35.54159661427509
 20
-110.1355214255241
 30
0.0
  0
VERTEX
  5
100BF
  8
0
 10
34.77960037422488
 20
-110.2270845354992
 30
0.0
  0
VERTEX
  5
100C0
  8
0
 10
34.04551243238597
 20
-110.4984203441809
 30
0.0
  0
VERTEX
  5
100C1
  8
0
 10
33.36621893873834
 20
-110.9395911113731
 30
0.0
  0
VERTEX
  5
100C2
  8
0
 10
32.76659918322766
 20
-111.5344388500861
 30
0.0
  0
VERTEX
  5
100C3
  8
0
 10
32.26861438570072
 20
-112.2611771167527
 30
0.0
  0
VERTEX
  5
100C4
  8
0
 10
31.89050336087027
 20
-113.0931889450393
 30
0.0
  0
VERTEX
  5
100C5
  8
0
 10
31.64611451727602
 20
-114.0000016987324
 30
0.0
  0
SEQEND
  5
100C6
  8
0
  0
POLYLINE
  5
199
  8
0
 66
     1
 10
0.0
 20
0.0
 30
0.000000000000262
  0
VERTEX
  5
100C7
  8
0
 10
31.60183631247379
 20
-116.0000017285347
 30
0.0
  0
VERTEX
  5
100C8
  8
0
 10
31.81855902980107
 20
-116.9636827049038
 30
0.0
  0
VERTEX
  5
100C9
  8
0
 10
32.18451146955091
 20
-117.8540858821438
 30
0.0
  0
VERTEX
  5
100CA
  8
0
 10
32.68502523803547
 20
-118.6355214193736
 30
0.0
  0
SEQEND
  5
100CB
  8
0
  0
ARC
  5
200
  8
0
 10
21.42133999047484
 20
-115.4214982500025
 30
-0.00000000000006
 40
5.011209972546609
 50
308.6062677250451
 51
353.3708875923092
  0
ARC
  5
201
  8
0
 10
21.42133999047484
 20
-115.4214982500025
 30
-0.00000000000006
 40
5.011209972546611
 50
16.47896646579212
 51
50.94281133375291
  0
ENDSEC
  0
EOF
