M48
; DRILL file {KiCad (6.0.7)} date Mon Feb 20 20:30:19 2023
; FORMAT={-:-/ absolute / metric / decimal}
; #@! TF.CreationDate,2023-02-20T20:30:19+09:00
; #@! TF.GenerationSoftware,Kicad,Pcbnew,(6.0.7)
; #@! TF.FileFunction,MixedPlating,1,2
FMAT,2
METRIC
; #@! TA.AperFunction,Plated,PTH,ComponentDrill
T1C0.800
; #@! TA.AperFunction,Plated,PTH,ComponentDrill
T2C1.000
%
G90
G05
T1
X75.855Y-100.584
X75.855Y-125.984
X78.395Y-100.584
X78.395Y-125.984
X80.935Y-100.584
X80.935Y-125.984
X81.026Y-104.521
X81.026Y-122.555
X83.475Y-100.584
X83.475Y-125.984
X83.566Y-104.521
X83.566Y-122.555
X86.015Y-100.584
X86.015Y-125.984
X86.106Y-104.521
X86.106Y-122.555
X88.555Y-100.584
X88.555Y-125.984
X88.646Y-104.521
X88.646Y-122.555
X89.154Y-112.776
X91.095Y-100.584
X91.095Y-125.984
X91.186Y-104.521
X91.186Y-122.555
X91.654Y-112.776
X93.635Y-100.584
X93.635Y-125.984
X93.726Y-104.521
X93.726Y-122.555
X96.175Y-100.584
X96.175Y-125.984
X96.266Y-104.521
X96.266Y-122.555
X98.715Y-100.584
X98.715Y-125.984
X98.806Y-104.521
X98.806Y-122.555
X101.255Y-100.584
X101.255Y-125.984
X103.795Y-100.584
X103.795Y-125.984
X106.335Y-100.584
X106.335Y-125.984
X108.875Y-100.584
X108.875Y-125.984
X111.415Y-100.584
X111.415Y-125.984
X113.955Y-100.584
X113.955Y-125.984
X116.495Y-100.584
X116.495Y-125.984
X119.032Y-100.588
X119.035Y-125.984
X121.572Y-100.588
X121.575Y-125.984
T2
X63.515Y-74.168
X66.055Y-74.168
X68.595Y-74.168
X68.834Y-111.506
X68.834Y-114.046
X89.901Y-130.048
X92.441Y-130.048
X94.981Y-130.048
X97.521Y-130.048
X100.061Y-130.048
X102.601Y-130.048
X105.141Y-130.048
X107.681Y-130.048
X124.953Y-112.014
X126.238Y-117.871
X126.238Y-120.411
X126.238Y-122.951
X127.493Y-112.014
X130.033Y-112.014
T0
M30
