G04 #@! TF.GenerationSoftware,KiCad,Pcbnew,(6.0.7)*
G04 #@! TF.CreationDate,2023-02-20T20:30:12+09:00*
G04 #@! TF.ProjectId,mirubo,6d697275-626f-42e6-9b69-6361645f7063,rev?*
G04 #@! TF.SameCoordinates,Original*
G04 #@! TF.FileFunction,Profile,NP*
%FSLAX46Y46*%
G04 Gerber Fmt 4.6, Leading zero omitted, Abs format (unit mm)*
G04 Created by KiCad (PCBNEW (6.0.7)) date 2023-02-20 20:30:12*
%MOMM*%
%LPD*%
G01*
G04 APERTURE LIST*
G04 #@! TA.AperFunction,Profile*
%ADD10C,0.200000*%
G04 #@! TD*
G04 APERTURE END LIST*
D10*
X54587809Y-71833453D02*
G75*
G03*
X54587809Y-71833453I-1500000J0D01*
G01*
X66956689Y-69117732D02*
G75*
G03*
X66956689Y-69117732I-950000J0D01*
G01*
X119511247Y-42012505D02*
G75*
G03*
X117863431Y-39542706I-4805547J-1421595D01*
G01*
X125553163Y-40273677D02*
X125175052Y-41105689D01*
X80795986Y-45843901D02*
X80795986Y-54343901D01*
X67116513Y-42441244D02*
X59016513Y-42441244D01*
X56284548Y-50587439D02*
X56284548Y-54343901D01*
X51948879Y-48860353D02*
X52598295Y-49472518D01*
X125483693Y-52894613D02*
X125969574Y-53648021D01*
X124826235Y-57181356D02*
X124907624Y-58152064D01*
X74977246Y-47343712D02*
X75066513Y-46591244D01*
X134676146Y-54198021D02*
X132976146Y-54198021D01*
X69284549Y-50542024D02*
X69284549Y-54343901D01*
X139646433Y-56814864D02*
X140293302Y-54740223D01*
X127330061Y-38510920D02*
X126650768Y-38952091D01*
X69284549Y-54343901D02*
X56284548Y-54343901D01*
X94295986Y-71843901D02*
X109295986Y-71843901D01*
X67295986Y-59343901D02*
G75*
G03*
X67295986Y-59343901I-1500000J0D01*
G01*
X138775893Y-41662740D02*
X137715137Y-40170386D01*
X71551794Y-36641496D02*
X69733355Y-35770957D01*
X124901066Y-51111209D02*
X125123020Y-52038316D01*
X80795986Y-60843899D02*
G75*
G03*
X80795986Y-57843901I14J1499999D01*
G01*
X72175052Y-50218171D02*
X72990266Y-49836096D01*
X113295999Y-50843901D02*
G75*
G03*
X109295986Y-46843901I-3999999J1D01*
G01*
X90295986Y-63712497D02*
X90295986Y-55212497D01*
X92170471Y-53212497D02*
X90295986Y-53212497D01*
X71284549Y-54343901D02*
X71284549Y-50470740D01*
X58087809Y-75012502D02*
X58087809Y-67833453D01*
X51167241Y-47390097D02*
X51465367Y-48156763D01*
X103387750Y-84794166D02*
G75*
G03*
X117863270Y-79145226I-1591750J25450266D01*
G01*
X117832708Y-71337782D02*
G75*
G03*
X117832709Y-47350019I-19036728J11993882D01*
G01*
X133826146Y-38148021D02*
X128826146Y-38148021D01*
X92170471Y-55480700D02*
X102170471Y-55480700D01*
X50795986Y-57843899D02*
G75*
G03*
X50795986Y-60843901I14J-1500001D01*
G01*
X140691643Y-52489105D02*
X140826146Y-50148021D01*
X125483693Y-47401430D02*
X125123020Y-48257727D01*
X71006689Y-71617732D02*
X71006689Y-87617732D01*
X64006689Y-132617732D02*
X133006689Y-132617732D01*
X136006689Y-113617732D02*
X136006689Y-71617732D01*
X123006689Y-90617689D02*
G75*
G03*
X126006689Y-87617732I11J2999989D01*
G01*
X107045989Y-43593901D02*
G75*
G03*
X107045989Y-43593901I-1000000J0D01*
G01*
X135006689Y-71617732D02*
X135006689Y-67617732D01*
X88545989Y-75093901D02*
G75*
G03*
X88545989Y-75093901I-1000000J0D01*
G01*
X104741899Y-67897330D02*
X102170471Y-65980700D01*
X137715137Y-60125657D02*
X138775893Y-58633303D01*
X56587809Y-81833453D02*
G75*
G03*
X56587809Y-81833453I-1000000J0D01*
G01*
X108670471Y-65980700D02*
G75*
G03*
X108670471Y-65980700I-1000000J0D01*
G01*
X88545989Y-43593901D02*
G75*
G03*
X88545989Y-43593901I-1000000J0D01*
G01*
X126051148Y-39546939D02*
X125553163Y-40273677D01*
X58087809Y-97012503D02*
X58087809Y-77012502D01*
X70795986Y-60843901D02*
X80795986Y-60843901D01*
X104170471Y-61480700D02*
X102170471Y-63480700D01*
X61006689Y-77012502D02*
X61006689Y-97012503D01*
X137715137Y-40170386D02*
X136504930Y-39061467D01*
X102170471Y-65980700D02*
X92170471Y-65980700D01*
X59566513Y-49447815D02*
X60319921Y-49933697D01*
X51066513Y-46591244D02*
X51167241Y-47390097D01*
X61006689Y-127617732D02*
X61006689Y-129617732D01*
X59016513Y-40741244D02*
X67116513Y-40741244D01*
X80795986Y-72843901D02*
X80795986Y-64343901D01*
X71284549Y-50470740D02*
X72175052Y-50218171D01*
X125123020Y-52038316D02*
X125483693Y-52894613D01*
X111170524Y-52980700D02*
G75*
G03*
X104741899Y-51064071I-3500024J0D01*
G01*
X140826146Y-50148021D02*
X140691643Y-47806938D01*
X125138328Y-59084513D02*
X125509556Y-59943172D01*
X52598295Y-49472518D02*
X53387450Y-49968592D01*
X58087809Y-67833453D02*
X48087809Y-67833453D01*
X58087809Y-77012502D02*
X61006689Y-77012502D01*
X66784549Y-64343901D02*
X66784549Y-66617732D01*
X124886385Y-44012502D02*
X119683595Y-44012502D01*
X69733355Y-35770957D02*
X67658714Y-35124087D01*
X51465367Y-48156763D02*
X51948879Y-48860353D01*
X48087809Y-67833453D02*
X48087809Y-102833453D01*
X65813104Y-49933697D02*
X66566513Y-49447815D01*
X70795986Y-57843899D02*
G75*
G03*
X70795986Y-60843901I14J-1500001D01*
G01*
X132284550Y-62148021D02*
X133826146Y-62148021D01*
X111170471Y-58512502D02*
X111170471Y-52980700D01*
X72990266Y-49836096D02*
X73701083Y-49338158D01*
X126650768Y-38952091D02*
X126051148Y-39546939D01*
X94295986Y-46843901D02*
X109295986Y-46843901D01*
X51979958Y-38912460D02*
X51297089Y-40225612D01*
X139646433Y-43481179D02*
X138775893Y-41662740D01*
X74153067Y-38912460D02*
X73044148Y-37702252D01*
X92170471Y-63480700D02*
X92170471Y-63712497D01*
X92170471Y-52980700D02*
X92170471Y-53212497D01*
X94295986Y-46843886D02*
G75*
G03*
X90295986Y-50843901I14J-4000014D01*
G01*
X98425823Y-34067575D02*
G75*
G03*
X96000536Y-37018233I370177J-2776325D01*
G01*
X113295986Y-67843901D02*
X113295986Y-60512502D01*
X54284548Y-54343901D02*
X50795986Y-54343901D01*
X56284548Y-50587439D02*
X57189671Y-50489019D01*
X123006689Y-90617732D02*
X103387750Y-90617732D01*
X92170471Y-55212497D02*
X92170471Y-55480700D01*
X125969574Y-46648021D02*
X125483693Y-47401430D01*
X59016513Y-42441244D02*
X59016513Y-40741244D01*
X61006689Y-71617732D02*
X61006689Y-75012502D01*
X98426096Y-84620248D02*
G75*
G03*
X101284549Y-84838771I3369804J25274948D01*
G01*
X126612187Y-61312302D02*
X127301574Y-61770602D01*
X67116513Y-40741244D02*
X67116513Y-42441244D01*
X108670471Y-52980700D02*
G75*
G03*
X108670471Y-52980700I-1000000J0D01*
G01*
X132976146Y-46098021D02*
X134676146Y-46098021D01*
X132284550Y-62148021D02*
X132284550Y-66617732D01*
X53088877Y-37702252D02*
X51979958Y-38912460D01*
X113295986Y-50843901D02*
X113295986Y-58512502D01*
X128049054Y-62052759D02*
X128826146Y-62148021D01*
X128826146Y-38148021D02*
X128064149Y-38239585D01*
X64784549Y-66617732D02*
X64784549Y-64343901D01*
X68290375Y-50330363D02*
X69284549Y-50542024D01*
X64784549Y-66617732D02*
X63006689Y-66617732D01*
X63066513Y-50591244D02*
X64029701Y-50516324D01*
X60795986Y-60843899D02*
G75*
G03*
X60795986Y-57843901I14J1499999D01*
G01*
X92170471Y-63712497D02*
X90295986Y-63712497D01*
X102506689Y-94767732D02*
X94506689Y-94767732D01*
X117863436Y-39542699D02*
G75*
G03*
X98425825Y-34067588I-16067436J-19801201D01*
G01*
X90295986Y-65712497D02*
X90295986Y-67843901D01*
X140691643Y-47806938D02*
X140293302Y-45555820D01*
X130284550Y-66617732D02*
X130284550Y-62148021D01*
X75066513Y-46591244D02*
X75066513Y-41591244D01*
X128006689Y-66617732D02*
X127006689Y-67617732D01*
X64956807Y-50294370D02*
X65813104Y-49933697D01*
X111170471Y-60512502D02*
X111170471Y-65980700D01*
X133826146Y-62148021D02*
X135191778Y-61917445D01*
X113295986Y-60512502D02*
X111170471Y-60512502D01*
X51297089Y-40225612D02*
X51066513Y-41591244D01*
X69006689Y-66617732D02*
X70006689Y-67617732D01*
X61176218Y-50294370D02*
X62103325Y-50516324D01*
X117863267Y-79145222D02*
G75*
G03*
X117832709Y-71337782I-3157367J3891422D01*
G01*
X102170471Y-63480700D02*
X92170471Y-63480700D01*
X125175052Y-41105689D02*
X124930664Y-42012502D01*
X54581231Y-36641496D02*
X53088877Y-37702252D01*
X128826146Y-62148021D02*
X130284550Y-62148021D01*
X56399670Y-35770957D02*
X54581231Y-36641496D01*
X54037809Y-105333453D02*
G75*
G03*
X54037809Y-105333453I-950000J0D01*
G01*
X57189671Y-50489019D02*
X58057309Y-50260509D01*
X132976146Y-54198021D02*
X132976146Y-46098021D01*
X127301574Y-61770602D02*
X128049054Y-62052759D01*
X58474311Y-35124087D02*
X56399670Y-35770957D01*
X96000535Y-37018223D02*
G75*
G03*
X80795986Y-45843901I2795465J-22325677D01*
G01*
X90295999Y-67843901D02*
G75*
G03*
X94295986Y-71843901I4000001J1D01*
G01*
X67658714Y-35124087D02*
X65407596Y-34725747D01*
X74835936Y-40225612D02*
X74153067Y-38912460D01*
X67371394Y-49960406D02*
X68290375Y-50330363D01*
X73701083Y-49338158D02*
X74282120Y-48742136D01*
X104170471Y-57480700D02*
X104170471Y-61480700D01*
X61006689Y-113617728D02*
G75*
G03*
X61006689Y-127617732I1J-7000002D01*
G01*
X134676146Y-46098021D02*
X134676146Y-54198021D01*
X92170471Y-65712497D02*
X90295986Y-65712497D01*
X74712632Y-48069313D02*
X74977246Y-47343712D01*
X66566512Y-49447815D02*
X67371394Y-49960406D01*
X61006689Y-97012503D02*
X58087809Y-97012503D01*
X125103108Y-44976183D02*
X125469060Y-45866586D01*
X58087809Y-102833453D02*
X58087809Y-99012503D01*
X125123020Y-48257727D02*
X124901066Y-49184833D01*
X125969575Y-53648021D02*
X125480035Y-54408398D01*
X135006689Y-67617732D02*
X134006689Y-66617732D01*
X138775893Y-58633303D02*
X139646433Y-56814864D01*
X54284548Y-54343901D02*
X54284548Y-50328589D01*
X90295986Y-53212497D02*
X90295986Y-50843901D01*
X136006689Y-71617732D02*
X135006689Y-71617732D01*
X102170471Y-55480700D02*
X104170471Y-57480700D01*
X127006689Y-67617732D02*
X127006689Y-71617732D01*
X131956689Y-69117732D02*
G75*
G03*
X131956689Y-69117732I-950000J0D01*
G01*
X60319921Y-49933697D02*
X61176218Y-50294370D01*
X48087809Y-102833453D02*
X49087809Y-102833454D01*
X136504930Y-61234576D02*
X137715137Y-60125657D01*
X51066513Y-41591244D02*
X51066513Y-46591244D01*
X49087809Y-106833452D02*
X50087809Y-107833452D01*
X62103325Y-50516324D02*
X63066513Y-50591244D01*
X56087809Y-107833452D02*
X57087809Y-106833452D01*
X49087809Y-102833454D02*
X49087809Y-106833452D01*
X101284549Y-90617732D02*
X101284549Y-84838771D01*
X109295986Y-71843886D02*
G75*
G03*
X113295986Y-67843901I14J3999986D01*
G01*
X140293302Y-54740223D02*
X140691643Y-52489105D01*
X136006689Y-127617728D02*
G75*
G03*
X136006689Y-113617732I1J6999998D01*
G01*
X58858502Y-49909537D02*
X59566513Y-49447815D01*
X96000548Y-81669570D02*
G75*
G03*
X98426096Y-84620250I2795452J-174330D01*
G01*
X65407596Y-34725747D02*
X63066513Y-34591244D01*
X125117999Y-55273167D02*
X124897262Y-56209378D01*
X140293302Y-45555820D02*
X139646433Y-43481179D01*
X94506689Y-94767732D02*
X94506689Y-93067732D01*
X58057309Y-50260509D02*
X58858502Y-49909537D01*
X60795986Y-57843901D02*
X50795986Y-57843901D01*
X80795986Y-57843901D02*
X70795986Y-57843901D01*
X103387750Y-90617732D02*
X103387750Y-84794172D01*
X50087809Y-107833452D02*
X56087809Y-107833452D01*
X61006689Y-99012503D02*
X58087809Y-99012503D01*
X50795986Y-60843901D02*
X60795986Y-60843901D01*
X107045989Y-75093901D02*
G75*
G03*
X107045989Y-75093901I-1000000J0D01*
G01*
X119511258Y-42012502D02*
X124930664Y-42012502D01*
X94506689Y-93067732D02*
X102506689Y-93067732D01*
X124886385Y-44012502D02*
X125103108Y-44976183D01*
X62006689Y-67617732D02*
X62006689Y-71617732D01*
X75066513Y-41591244D02*
X74835936Y-40225612D01*
X124901066Y-49184833D02*
X124826146Y-50148021D01*
X61006689Y-99012503D02*
X61006689Y-113617732D01*
X64029701Y-50516324D02*
X64956807Y-50294370D01*
X53387450Y-49968592D02*
X54284548Y-50328589D01*
X124826146Y-50148021D02*
X124901066Y-51111209D01*
X133006689Y-132617689D02*
G75*
G03*
X136006689Y-129617732I11J2999989D01*
G01*
X70006689Y-71617732D02*
X71006689Y-71617732D01*
X135191778Y-38378598D02*
X133826146Y-38148021D01*
X126007163Y-60695321D02*
X126612187Y-61312302D01*
X134006689Y-66617732D02*
X132284550Y-66617732D01*
X80795993Y-72843896D02*
G75*
G03*
X96000536Y-81669569I18000007J13499996D01*
G01*
X90295986Y-55212497D02*
X92170471Y-55212497D01*
X80795986Y-64343901D02*
X66784549Y-64343901D01*
X125509556Y-59943172D02*
X126007163Y-60695321D01*
X63006689Y-66617732D02*
X62006689Y-67617732D01*
X124897262Y-56209378D02*
X124826235Y-57181356D01*
X117832708Y-47350017D02*
G75*
G03*
X119683595Y-44012502I-3126808J3916017D01*
G01*
X136504930Y-39061467D02*
X135191778Y-38378598D01*
X102170471Y-52980700D02*
X92170471Y-52980700D01*
X92170471Y-65980700D02*
X92170471Y-65712497D01*
X61006668Y-129617732D02*
G75*
G03*
X64006689Y-132617732I3000032J32D01*
G01*
X125469060Y-45866586D02*
X125969574Y-46648021D01*
X73044148Y-37702252D02*
X71551794Y-36641496D01*
X74282120Y-48742136D02*
X74712632Y-48069313D01*
X50795986Y-64343901D02*
X64784549Y-64343901D01*
X125480035Y-54408398D02*
X125117999Y-55273167D01*
X74006689Y-90617732D02*
X101284549Y-90617732D01*
X57087809Y-106833452D02*
X57087809Y-102833454D01*
X136006689Y-129617732D02*
X136006689Y-127617732D01*
X66784549Y-66617732D02*
X69006689Y-66617732D01*
X80795986Y-54343901D02*
X71284549Y-54343901D01*
X102506689Y-93067732D02*
X102506689Y-94767732D01*
X60725429Y-34725747D02*
X58474311Y-35124087D01*
X113295986Y-58512502D02*
X111170471Y-58512502D01*
X63066513Y-34591244D02*
X60725429Y-34725747D01*
X124907624Y-58152064D02*
X125138328Y-59084513D01*
X54587809Y-91833453D02*
G75*
G03*
X54587809Y-91833453I-1500000J0D01*
G01*
X104741944Y-67897300D02*
G75*
G03*
X111170471Y-65980700I2928556J1916600D01*
G01*
X108670471Y-59480700D02*
G75*
G03*
X108670471Y-59480700I-1000000J0D01*
G01*
X70006689Y-67617732D02*
X70006689Y-71617732D01*
X50795986Y-54343899D02*
G75*
G03*
X50795986Y-64343901I4J-5000001D01*
G01*
X127006689Y-71617732D02*
X126006689Y-71617732D01*
X126006689Y-71617732D02*
X126006689Y-87617732D01*
X128064149Y-38239585D02*
X127330061Y-38510920D01*
X104741899Y-51064071D02*
X102170471Y-52980700D01*
X57087809Y-102833454D02*
X58087809Y-102833453D01*
X61006689Y-75012502D02*
X58087809Y-75012502D01*
X62006689Y-71617732D02*
X61006689Y-71617732D01*
X130284550Y-66617732D02*
X128006689Y-66617732D01*
X135191778Y-61917445D02*
X136504930Y-61234576D01*
X71006668Y-87617732D02*
G75*
G03*
X74006689Y-90617732I3000032J32D01*
G01*
M02*
