G04 #@! TF.GenerationSoftware,KiCad,Pcbnew,(6.0.7)*
G04 #@! TF.CreationDate,2023-02-20T20:30:12+09:00*
G04 #@! TF.ProjectId,mirubo,6d697275-626f-42e6-9b69-6361645f7063,rev?*
G04 #@! TF.SameCoordinates,Original*
G04 #@! TF.FileFunction,Soldermask,Top*
G04 #@! TF.FilePolarity,Negative*
%FSLAX46Y46*%
G04 Gerber Fmt 4.6, Leading zero omitted, Abs format (unit mm)*
G04 Created by KiCad (PCBNEW (6.0.7)) date 2023-02-20 20:30:12*
%MOMM*%
%LPD*%
G01*
G04 APERTURE LIST*
%ADD10R,1.700000X1.700000*%
%ADD11O,1.700000X1.700000*%
%ADD12R,1.200000X2.000000*%
%ADD13O,1.200000X2.000000*%
%ADD14R,1.600000X1.600000*%
%ADD15C,1.600000*%
%ADD16R,1.308000X1.308000*%
%ADD17C,1.308000*%
G04 APERTURE END LIST*
D10*
X68834000Y-114046000D03*
D11*
X68834000Y-111506000D03*
D10*
X63515000Y-74168000D03*
D11*
X66055000Y-74168000D03*
X68595000Y-74168000D03*
D10*
X126238000Y-117871000D03*
D11*
X126238000Y-120411000D03*
X126238000Y-122951000D03*
D12*
X75854560Y-125984000D03*
D13*
X78394560Y-125984000D03*
X80934560Y-125984000D03*
X83474560Y-125984000D03*
X86014560Y-125984000D03*
X88554560Y-125984000D03*
X91094560Y-125984000D03*
X93634560Y-125984000D03*
X96174560Y-125984000D03*
X98714560Y-125984000D03*
X101254560Y-125984000D03*
X103794560Y-125984000D03*
X106334560Y-125984000D03*
X108874560Y-125984000D03*
X111414560Y-125984000D03*
X113954560Y-125984000D03*
X116494560Y-125984000D03*
X119034560Y-125984000D03*
X121574560Y-125984000D03*
X121571840Y-100587680D03*
X119031840Y-100587680D03*
X116494560Y-100584000D03*
X113954560Y-100584000D03*
X111414560Y-100584000D03*
X108874560Y-100584000D03*
X106334560Y-100584000D03*
X103794560Y-100584000D03*
X101254560Y-100584000D03*
X98714560Y-100584000D03*
X96174560Y-100584000D03*
X93634560Y-100584000D03*
X91094560Y-100584000D03*
X88554560Y-100584000D03*
X86014560Y-100584000D03*
X83474560Y-100584000D03*
X80934560Y-100584000D03*
X78394560Y-100584000D03*
X75854560Y-100584000D03*
D10*
X107681000Y-130048000D03*
D11*
X105141000Y-130048000D03*
X102601000Y-130048000D03*
X100061000Y-130048000D03*
X97521000Y-130048000D03*
X94981000Y-130048000D03*
X92441000Y-130048000D03*
X89901000Y-130048000D03*
D10*
X130033000Y-112014000D03*
D11*
X127493000Y-112014000D03*
X124953000Y-112014000D03*
D14*
X89154000Y-112776000D03*
D15*
X91654000Y-112776000D03*
D16*
X81026000Y-104521000D03*
D17*
X83566000Y-104521000D03*
X86106000Y-104521000D03*
X88646000Y-104521000D03*
X91186000Y-104521000D03*
X93726000Y-104521000D03*
X96266000Y-104521000D03*
X98806000Y-104521000D03*
X98806000Y-122555000D03*
X96266000Y-122555000D03*
X93726000Y-122555000D03*
X91186000Y-122555000D03*
X88646000Y-122555000D03*
X86106000Y-122555000D03*
X83566000Y-122555000D03*
X81026000Y-122555000D03*
M02*
